<svg width="40" height="32" viewBox="0 0 40 32" fill="none" xmlns="http://www.w3.org/2000/svg">
<path d="M31.27 0.130859C24.459 0.130859 18.9197 5.65264 18.9197 12.4368C18.9197 15.9372 15.994 18.6788 12.413 18.6788H12.3974C8.80852 18.6788 5.88284 15.9372 5.89064 12.4368V22.6439C7.78648 23.7746 10.01 24.4406 12.3974 24.4406H12.413C19.2474 24.4406 24.8101 19.1125 24.8101 12.4368C24.8101 8.88207 27.6968 5.9934 31.27 5.9934C33.0566 5.9934 34.6716 6.71363 35.8419 7.88304L40.0002 3.74751C37.7611 1.51711 34.6794 0.138604 31.27 0.138604V0.130859Z" fill="url(#paint0_linear_9183_112544)"/>
<path d="M5.89038 12.3059C5.89038 8.77444 8.81606 5.81607 12.3971 5.81607C15.9781 5.81607 18.9038 8.77444 18.9038 12.3059H18.9272C18.9584 9.30106 20.0663 6.55954 21.8919 4.42982C19.6216 1.73475 16.2122 0 12.3971 0C5.5627 0 0 5.57599 0 12.3059V32C3.25336 32 5.89038 29.3746 5.89038 26.1297V12.3059Z" fill="url(#paint1_linear_9183_112544)"/>
<path d="M31.2463 18.8799C27.7511 18.8799 24.9112 16.1152 24.7942 12.6611C24.7396 15.5963 23.6083 18.2526 21.7671 20.3049C24.0374 23.0154 27.4468 24.7424 31.2541 24.7424C34.6635 24.7424 37.7452 23.3639 39.9844 21.1335L35.826 16.9903C34.6557 18.1519 33.0407 18.8799 31.2541 18.8799H31.2463Z" fill="url(#paint2_linear_9183_112544)"/>
<defs>
<linearGradient id="paint0_linear_9183_112544" x1="15.2215" y1="19.3399" x2="-4.36848" y2="23.2234" gradientUnits="userSpaceOnUse">
<stop stop-color="#23262F"/>
<stop offset="0.47" stop-color="#383838"/>
</linearGradient>
<linearGradient id="paint1_linear_9183_112544" x1="-1.8584" y1="12.7033" x2="21.8404" y2="7.47866" gradientUnits="userSpaceOnUse">
<stop offset="0.09" stop-color="#23262F"/>
<stop offset="0.925" stop-color="#383838"/>
</linearGradient>
<linearGradient id="paint2_linear_9183_112544" x1="32.3809" y1="22.4759" x2="23.896" y2="18.0747" gradientUnits="userSpaceOnUse">
<stop stop-color="#23262F"/>
<stop offset="0.71" stop-color="#383838"/>
</linearGradient>
</defs>
</svg>
